<svg width="1000" height="1000" fill="none" xmlns="http://www.w3.org/2000/svg">
    <g clip-path="url(#clip0)">
        <path fill="#353535" d="M161.091 406.551l34.192 98.4h54.306l30.17 32.131 16.091-18.074-4.023-24.098v-20.081l4.023-30.123 10.057-24.098 14.079-26.106 12.068-30.122 8.045-30.123 18.102-18.073 36.204-24.098 30.17-18.074 28.159-6.024 46.26-4.017 24.136 4.017H643.81l42.238 10.041 24.136 14.057 22.125 10.041 18.102 14.057 12.068 22.089 10.056 26.107 8.046 34.138v52.213l6.034 24.098 4.022 20.081v10.041l22.125-38.155 16.091-90.367v-84.343l-16.091-90.368-44.249-76.31-86.487-64.261L583.47 25H436.643L319.986 71.188l-92.521 84.343-56.318 78.318-18.102 90.367 8.046 82.335zM305.907 856.38l-32.182 26.106-14.079 26.106-20.113 26.106-32.182 32.131-36.204 20.081L145 1002.98l215.212 1.82-10.056-11.865-10.057-18.074v-16.065l-4.023-20.082v-20.081l-8.045-24.098-12.068-22.09-10.056-16.065zM855 1009l-14.079-6.02-28.159-16.07-32.181-20.081-38.216-8.033-18.102-24.098-13.073-16.065-5.029 4.016-14.079 16.065v20.082l-6.034 8.033-12.068 20.081v12.049l-6.034 8.451L855 1009z"/>
        <path stroke="#353535" d="M195.283 504.951l-34.192-98.4-8.046-82.335 18.102-90.367 56.318-78.318 92.521-84.343L436.643 25H583.47l98.556 36.147 86.487 64.261 44.249 76.31 16.091 90.368v84.343l-16.091 90.367-22.125 38.155m-595.354 0v38.155l12.068 24.098v28.114l8.046 36.147 12.068 16.066 12.068 18.073 20.113 18.074h26.147m-90.51-178.727h54.306l30.17 32.131m510.878-32.131v46.188l-10.056 80.326-12.068 66.27-26.148 68.277-18.102 24.098-26.147 24.098-16.09 42.172m108.611-351.429V494.91l-4.022-20.081-6.034-24.098v-52.213l-8.046-34.138-10.056-26.107-12.068-22.089-18.102-14.057-22.125-10.041-24.136-14.057-42.238-10.041H523.13l-24.136-4.017-46.26 4.017-28.159 6.024-30.17 18.074-36.204 24.098-18.102 18.073-8.045 30.123-12.068 30.122-14.079 26.106-10.057 24.098-4.023 30.123v20.081l4.023 24.098-16.091 18.074M682.026 856.38l-28.159 38.155-50.283 14.057H537.21l-54.306-26.106-46.261-42.172-60.34-40.163-36.204-34.139-34.192-34.138M682.026 856.38l16.09 46.187 13.074 16.066M305.907 731.874l-20.114-48.196m20.114 48.196l14.079 42.171 8.045 34.139v24.098l-22.124 24.098m-20.114-172.702l16.091-42.172-6.034-38.155-10.057-36.147-6.034-30.122m26.148 319.298l-32.182 26.106-14.079 26.106-20.113 26.106-32.182 32.131-36.204 20.081L145 1002.98l215.212 1.82m-54.305-148.42l10.056 16.065 12.068 22.09 8.045 24.098v20.081l4.023 20.082v16.065l10.057 18.074 10.056 11.865m0 0l307.734 2.61m0 0L855 1009l-14.079-6.02-28.159-16.07-32.181-20.081-38.216-8.033-18.102-24.098-13.073-16.065m-43.244 88.777l6.034-8.451V986.91l12.068-20.081 6.034-8.033v-20.082l14.079-16.065 5.029-4.016" stroke-width="9" stroke-linecap="round"/>
    </g>
    <defs>
        <clipPath id="clip0">
            <path fill="#fff" d="M0 0h1000v1000H0z"/>
        </clipPath>
    </defs>
</svg>
